<svg xmlns="http://www.w3.org/2000/svg" xmlns:xlink="http://www.w3.org/1999/xlink" width="500" zoomAndPan="magnify" viewBox="0 0 375 374.999991" height="500" preserveAspectRatio="xMidYMid meet" version="1.0"><defs><clipPath id="953470fe77"><path d="M 43.75 43.75 L 331 43.75 L 331 331 L 43.75 331 Z M 43.75 43.75 " clip-rule="nonzero"/></clipPath></defs><path fill="#fcff19" d="M 0 0 L 0 102.273438 L 34.046875 102.273438 L 34.046875 34.089844 L 102.226562 34.089844 L 102.226562 0 Z M 102.226562 34.089844 L 102.226562 68.183594 L 136.363281 68.183594 L 136.363281 34.089844 Z M 136.363281 68.183594 L 136.363281 102.273438 L 170.453125 102.273438 L 170.453125 68.183594 Z M 170.453125 102.273438 L 170.453125 136.363281 L 204.546875 136.363281 L 204.546875 102.273438 Z M 204.546875 102.273438 L 238.636719 102.273438 L 238.636719 68.183594 L 204.546875 68.183594 Z M 238.636719 68.183594 L 272.726562 68.183594 L 272.726562 34.089844 L 238.636719 34.089844 Z M 272.726562 34.089844 L 340.863281 34.089844 L 340.863281 102.273438 L 375 102.273438 L 375 0 L 272.726562 0 Z M 340.863281 102.273438 L 306.773438 102.273438 L 306.773438 136.363281 L 340.863281 136.363281 Z M 306.773438 136.363281 L 272.726562 136.363281 L 272.726562 170.5 L 306.773438 170.5 Z M 272.726562 170.5 L 238.636719 170.5 L 238.636719 204.546875 L 272.726562 204.546875 Z M 272.726562 204.546875 L 272.726562 238.636719 L 306.773438 238.636719 L 306.773438 204.546875 Z M 306.773438 238.636719 L 306.773438 272.726562 L 340.863281 272.726562 L 340.863281 238.636719 Z M 340.863281 272.726562 L 340.863281 340.910156 L 272.726562 340.910156 L 272.726562 375 L 375 375 L 375 272.726562 Z M 272.726562 340.910156 L 272.726562 306.816406 L 238.636719 306.816406 L 238.636719 340.910156 Z M 238.636719 306.816406 L 238.636719 272.726562 L 204.546875 272.726562 L 204.546875 306.816406 Z M 204.546875 272.726562 L 204.546875 238.636719 L 170.453125 238.636719 L 170.453125 272.726562 Z M 170.453125 272.726562 L 136.363281 272.726562 L 136.363281 306.816406 L 170.453125 306.816406 Z M 136.363281 306.816406 L 102.226562 306.816406 L 102.226562 340.910156 L 136.363281 340.910156 Z M 102.226562 340.910156 L 34.046875 340.910156 L 34.046875 272.726562 L 0 272.726562 C 0 306.816406 0 340.910156 0 375 C 34.089844 375 68.183594 375 102.226562 375 Z M 34.046875 272.726562 L 68.136719 272.726562 L 68.136719 238.636719 C 56.773438 238.636719 45.410156 238.636719 34.046875 238.636719 Z M 68.136719 238.636719 L 102.226562 238.636719 L 102.226562 204.546875 C 90.863281 204.546875 79.5 204.546875 68.136719 204.546875 Z M 102.226562 204.546875 L 136.363281 204.546875 L 136.363281 170.5 C 124.957031 170.5 113.59375 170.5 102.226562 170.5 Z M 102.226562 170.5 L 102.226562 136.363281 L 68.136719 136.363281 L 68.136719 170.5 Z M 68.136719 136.363281 L 68.136719 102.273438 L 34.046875 102.273438 L 34.046875 136.363281 L 68.136719 136.363281 " fill-opacity="1" fill-rule="nonzero"/><g clip-path="url(#953470fe77)"><path fill="#ec2127" d="M 299.074219 43.757812 L 267.160156 43.757812 L 267.160156 75.675781 L 235.246094 75.675781 L 235.246094 107.585938 L 203.332031 107.585938 L 203.332031 139.503906 L 171.417969 139.503906 L 171.417969 107.585938 L 139.503906 107.585938 L 139.503906 75.675781 L 107.585938 75.675781 L 107.585938 43.757812 L 43.757812 43.757812 L 43.757812 107.585938 L 75.675781 107.585938 L 75.675781 139.503906 L 107.585938 139.503906 L 107.585938 171.417969 L 139.503906 171.417969 L 139.503906 203.332031 L 107.585938 203.332031 L 107.585938 235.246094 L 75.675781 235.246094 L 75.675781 267.160156 L 43.757812 267.160156 L 43.757812 330.992188 L 107.585938 330.992188 L 107.585938 299.074219 L 139.503906 299.074219 L 139.503906 267.160156 L 171.417969 267.160156 L 171.417969 235.246094 L 203.332031 235.246094 L 203.332031 267.160156 L 235.246094 267.160156 L 235.246094 299.074219 L 267.160156 299.074219 L 267.160156 330.992188 L 330.992188 330.992188 L 330.992188 267.160156 L 299.074219 267.160156 L 299.074219 235.246094 L 267.160156 235.246094 L 267.160156 203.332031 L 235.246094 203.332031 L 235.246094 171.417969 L 267.160156 171.417969 L 267.160156 139.503906 L 299.074219 139.503906 L 299.074219 107.585938 L 330.992188 107.585938 L 330.992188 43.757812 L 299.074219 43.757812 " fill-opacity="1" fill-rule="nonzero"/></g></svg>