<?xml version="1.0" encoding="UTF-8"?>
<svg version="1.1" xmlns="http://www.w3.org/2000/svg" width="512" height="512">
<path d="M0 0 C17.16 0 34.32 0 52 0 C52 17.16 52 34.32 52 52 C35.17 52 18.34 52 1 52 C1 85.66 1 119.32 1 154 C118.81 154 236.62 154 358 154 C358 120.34 358 86.68 358 52 C341.17 52 324.34 52 307 52 C307 34.84 307 17.68 307 0 C324.16 0 341.32 0 359 0 C359 16.83 359 33.66 359 51 C375.83 51 392.66 51 410 51 C410 102.15 410 153.3 410 206 C257.87 206 105.74 206 -51 206 C-51 154.85 -51 103.7 -51 51 C-34.17 51 -17.34 51 0 51 C0 34.17 0 17.34 0 0 Z " fill="#fafafa" transform="translate(77,281)"/>
<path d="M0 0 C51.15 0 102.3 0 155 0 C155 16.83 155 33.66 155 51 C171.83 51 188.66 51 206 51 C206 102.15 206 153.3 206 206 C189.17 206 172.34 206 155 206 C155 222.83 155 239.66 155 257 C103.85 257 52.7 257 0 257 C0 240.17 0 223.34 0 206 C-16.83 206 -33.66 206 -51 206 C-51 154.85 -51 103.7 -51 51 C-34.17 51 -17.34 51 0 51 C0 34.17 0 17.34 0 0 Z M1 52 C1 102.49 1 152.98 1 205 C51.49 205 101.98 205 154 205 C154 154.51 154 104.02 154 52 C103.51 52 53.02 52 1 52 Z " fill="#fafafa" transform="translate(179,25)"/>
</svg>
