<svg xmlns="http://www.w3.org/2000/svg" xmlns:xlink="http://www.w3.org/1999/xlink" width="500" zoomAndPan="magnify" viewBox="0 0 375 374.999991" height="500" preserveAspectRatio="xMidYMid meet" version="1.0"><defs><clipPath id="f28570d66e"><path d="M 20.113281 106.734375 L 354.886719 106.734375 L 354.886719 268.265625 L 20.113281 268.265625 Z M 20.113281 106.734375 " clip-rule="nonzero"/></clipPath><clipPath id="6f44488e8d"><path d="M 187.5 106.734375 L 354.886719 268.265625 L 20.113281 268.265625 Z M 187.5 106.734375 " clip-rule="nonzero"/></clipPath><clipPath id="354ce9411f"><path d="M 12.050781 91.878906 L 363 91.878906 L 363 283.128906 L 12.050781 283.128906 Z M 12.050781 91.878906 " clip-rule="nonzero"/></clipPath></defs><g clip-path="url(#f28570d66e)"><g clip-path="url(#6f44488e8d)"><path fill="#151515" d="M 20.113281 106.734375 L 354.886719 106.734375 L 354.886719 268.265625 L 20.113281 268.265625 Z M 20.113281 106.734375 " fill-opacity="1" fill-rule="nonzero"/></g></g><g clip-path="url(#354ce9411f)"><path fill="#374151" d="M 358.144531 278.464844 C 355.261719 281.347656 351.277344 283.148438 346.863281 283.148438 C 342.449219 283.148438 338.464844 281.363281 335.578125 278.464844 L 187.496094 130.351562 L 39.414062 278.464844 C 36.53125 281.347656 32.53125 283.132812 28.132812 283.132812 C 19.320312 283.132812 12.179688 275.996094 12.179688 267.179688 C 12.179688 262.78125 13.964844 258.78125 16.847656 255.898438 L 176.214844 96.53125 C 179.097656 93.648438 183.082031 91.847656 187.496094 91.847656 C 191.910156 91.847656 195.894531 93.632812 198.78125 96.53125 L 358.144531 255.898438 C 361.03125 258.78125 362.832031 262.765625 362.832031 267.179688 C 362.832031 271.597656 361.046875 275.578125 358.144531 278.464844 Z M 358.144531 278.464844 " fill-opacity="1" fill-rule="nonzero"/></g><path stroke-linecap="round" transform="matrix(0.75, 0, 0, 0.75, 12.049943, 254.620267)" fill="none" stroke-linejoin="miter" d="M 19.001119 19.001103 L 448.865731 19.001103 " stroke="#151515" stroke-width="38" stroke-opacity="1" stroke-miterlimit="4"/></svg>